<svg width="24" height="24" viewBox="0 0 24 24" fill="none" xmlns="http://www.w3.org/2000/svg">
<g clip-path="url(#clip0_368_1753)">
<path d="M23 11C23.2652 11 23.5196 10.8946 23.7071 10.7071C23.8946 10.5196 24 10.2652 24 10C24 9.73478 23.8946 9.48043 23.7071 9.29289C23.5196 9.10536 23.2652 9 23 9H21.6L20.83 6.519C20.5489 5.60459 20.0095 4.7909 19.2768 4.17582C18.5441 3.56074 17.6493 3.17049 16.7 3.052C16.3206 2.14915 15.6836 1.37814 14.8684 0.835324C14.0533 0.292507 13.0963 0.00196172 12.117 0L11.883 0C10.9037 0.00196172 9.94666 0.292507 9.13155 0.835324C8.31643 1.37814 7.67938 2.14915 7.3 3.052C6.3512 3.17077 5.45689 3.56105 4.72459 4.17591C3.99228 4.79078 3.45315 5.60406 3.172 6.518L2.4 9H0.999996C0.734779 9 0.480425 9.10536 0.292889 9.29289C0.105353 9.48043 -4.31179e-06 9.73478 -4.31179e-06 10C-4.31179e-06 10.2652 0.105353 10.5196 0.292889 10.7071C0.480425 10.8946 0.734779 11 0.999996 11H1.781L1.066 13.3C0.657466 13.7368 0.353244 14.2606 0.176188 14.8318C-0.000867173 15.4031 -0.0461522 16.0071 0.0437357 16.5984C0.133624 17.1897 0.356347 17.7529 0.695172 18.2458C1.034 18.7386 1.48011 19.1483 2 19.444V21C2 21.7956 2.31607 22.5587 2.87868 23.1213C3.44128 23.6839 4.20435 24 5 24C5.79565 24 6.55871 23.6839 7.12132 23.1213C7.68393 22.5587 8 21.7956 8 21V20H16V21C16 21.7956 16.3161 22.5587 16.8787 23.1213C17.4413 23.6839 18.2043 24 19 24C19.7956 24 20.5587 23.6839 21.1213 23.1213C21.6839 22.5587 22 21.7956 22 21V19.444C22.5195 19.1483 22.9653 18.7387 23.3039 18.246C23.6425 17.7533 23.8651 17.1903 23.955 16.5993C24.0449 16.0083 23.9997 15.4045 23.8229 14.8335C23.646 14.2624 23.3421 13.7388 22.934 13.302L22.219 11H23ZM11.883 2H12.117C12.5375 2.00085 12.9531 2.09035 13.3366 2.26266C13.7202 2.43497 14.0631 2.68621 14.343 3H9.657C9.93678 2.68606 10.2797 2.43472 10.6633 2.2624C11.0468 2.09008 11.4625 2.00066 11.883 2ZM5.083 7.11C5.27091 6.49762 5.65078 5.96191 6.16649 5.58196C6.68221 5.20202 7.30644 4.99799 7.947 5H16.053C16.6939 4.99784 17.3184 5.20191 17.8343 5.58207C18.3503 5.96222 18.7302 6.49827 18.918 7.111L20.45 12.045C20.301 12.0214 20.1507 12.0064 20 12H4C3.84926 12.0064 3.69901 12.0214 3.55 12.045L5.083 7.11ZM6 21C6 21.2652 5.89464 21.5196 5.7071 21.7071C5.51957 21.8946 5.26521 22 5 22C4.73478 22 4.48043 21.8946 4.29289 21.7071C4.10535 21.5196 4 21.2652 4 21V20H6V21ZM20 21C20 21.2652 19.8946 21.5196 19.7071 21.7071C19.5196 21.8946 19.2652 22 19 22C18.7348 22 18.4804 21.8946 18.2929 21.7071C18.1054 21.5196 18 21.2652 18 21V20H20V21ZM20 18H4C3.46956 18 2.96086 17.7893 2.58578 17.4142C2.21071 17.0391 2 16.5304 2 16C2 15.4696 2.21071 14.9609 2.58578 14.5858C2.96086 14.2107 3.46956 14 4 14V15C4 15.2652 4.10535 15.5196 4.29289 15.7071C4.48043 15.8946 4.73478 16 5 16C5.26521 16 5.51957 15.8946 5.7071 15.7071C5.89464 15.5196 6 15.2652 6 15V14H18V15C18 15.2652 18.1054 15.5196 18.2929 15.7071C18.4804 15.8946 18.7348 16 19 16C19.2652 16 19.5196 15.8946 19.7071 15.7071C19.8946 15.5196 20 15.2652 20 15V14C20.5304 14 21.0391 14.2107 21.4142 14.5858C21.7893 14.9609 22 15.4696 22 16C22 16.5304 21.7893 17.0391 21.4142 17.4142C21.0391 17.7893 20.5304 18 20 18Z" fill="#071516"/>
</g>
<defs>
<clipPath id="clip0_368_1753">
<rect width="24" height="24" fill="#071516"/>
</clipPath>
</defs>
</svg>
